<?xml version="1.0" encoding="UTF-8"?>
<svg width="42px" height="42px" viewBox="0 0 42 42" version="1.1" xmlns="http://www.w3.org/2000/svg" xmlns:xlink="http://www.w3.org/1999/xlink">
    <!-- Generator: Sketch 58 (84663) - https://sketch.com -->
    <title>icn_profile</title>
    <desc>Created with Sketch.</desc>
    <g id="Page-1" stroke="none" stroke-width="1" fill="none" fill-rule="evenodd">
        <g id="home-1.0" transform="translate(-1348.000000, -50.000000)">
            <g id="content" transform="translate(170.000000, 46.000000)">
                <g id="icons" transform="translate(1124.000000, 4.000000)">
                    <g id="icn_profile" transform="translate(54.000000, 0.000000)">
                        <path d="M0.5,21 C0.5,32.3234973 9.67727244,41.5 21,41.5 C32.3234973,41.5 41.5,32.3227276 41.5,21 C41.5,9.67650267 32.3227276,0.5 21,0.5 C9.67650267,0.5 0.5,9.67727244 0.5,21 Z" id="Rectangle-5" stroke="#E7E7E7"></path>
                        <path d="M21,14 C17.1395342,14 14,17.1395311 14,21.0000016 C14,24.8604705 17.1395342,28.0000016 21,28.0000016 C24.8604658,28.0000016 28,24.8604705 28,21.0000016 C28,17.1395311 24.8604658,14.0000016 21,14.0000016 L21,14 Z M21,14.9333333 C24.3560551,14.9333333 27.0666667,17.6439511 27.0666667,21.0000016 C27.0666667,22.1359149 26.7569509,23.1982971 26.2159722,24.1062593 C24.9344371,22.6761127 23.0694707,21.7777793 21,21.7777793 C18.9280653,21.7777793 17.0647773,22.6780105 15.7840278,24.1111127 C15.2417269,23.2023727 14.9333333,22.1374082 14.9333333,21.0000016 C14.9333333,17.6439511 17.6439449,14.9333349 21,14.9333349 L21,14.9333333 Z M21,15.4 C19.3732187,15.4 18.0444444,16.7287711 18.0444444,18.3555556 C18.0444444,19.98234 19.3732187,21.3111127 21,21.3111127 C22.6267813,21.3111127 23.9555556,19.98234 23.9555556,18.3555556 C23.9555556,16.7287711 22.6267813,15.4 21,15.4 Z M21,16.3333333 C22.1223707,16.3333333 23.0222222,17.2331911 23.0222222,18.3555556 C23.0222222,19.47792 22.1223707,20.3777731 21,20.3777731 C19.8776293,20.3777731 18.9777778,19.47792 18.9777778,18.3555556 C18.9777778,17.2331911 19.8776293,16.3333333 21,16.3333333 Z M21,22.7111127 C22.8731907,22.7111127 24.539396,23.5618927 25.6520833,24.8937438 C24.5401411,26.2217838 22.8717487,27.0666682 21,27.0666682 C19.1282513,27.0666682 17.4598589,26.2217838 16.3479167,24.8937438 C17.4598915,23.5605082 19.12568,22.7111127 21,22.7111127 L21,22.7111127 Z" id="Shape" fill="#111111" fill-rule="nonzero"></path>
                    </g>
                </g>
            </g>
        </g>
    </g>
</svg>